<?xml version="1.0" encoding="utf-8"?>
<!-- Generator: Adobe Illustrator 25.0.0, SVG Export Plug-In . SVG Version: 6.00 Build 0)  -->
<svg version="1.1" id="Capa_1" xmlns="http://www.w3.org/2000/svg" xmlns:xlink="http://www.w3.org/1999/xlink" x="0px" y="0px"
	 viewBox="0 0 113.39 56.69" style="enable-background:new 0 0 113.39 56.69;" xml:space="preserve">
<path d="M639.71,1098.17c0-132.98,0-265.96,0-398.94c0.26-0.76,0.69-1.5,0.75-2.27c0.44-5.71,0.89-11.42,1.18-17.14
	c1.39-27.16,3.65-54.25,9.95-80.77c13.6-57.3,42.46-105.33,88.6-142.3c38.6-30.93,82.92-48.66,131.87-55.16
	c27.3-3.63,54.73-5.37,82.23-5.73c30.28-0.4,60.58-0.18,90.86-0.23c1.74,0,3.48,0,6.25,0c-1.91-2.58-3.22-4.38-4.56-6.15
	c-21.67-28.77-43.32-57.54-65.01-86.29c-6.73-8.92-10.23-18.89-10.24-30.1c-0.02-33.71,32.6-57.38,64.67-46.88
	c10.48,3.43,18.61,9.93,25.19,18.7c24.85,33.13,49.81,66.18,74.74,99.25c1.13,1.5,2.33,2.93,3.66,4.59
	c1.36-1.67,2.31-2.78,3.21-3.94c14.72-18.83,29.43-37.66,44.15-56.5c11.89-15.22,23.79-30.44,35.67-45.67
	c7.54-9.66,17.23-15.92,29.23-18.51c2.85-0.61,5.75-0.98,8.62-1.46c0.98,0,1.97,0,2.95,0c1.26,0.27,2.51,0.66,3.79,0.79
	c15.12,1.54,26.92,8.8,35.5,21.14c12.41,17.86,11.48,40.96-2.24,58.58c-22.82,29.33-45.74,58.59-68.6,87.88
	c-0.96,1.23-1.83,2.55-2.74,3.83c0.59,0.36,0.83,0.63,1.09,0.64c1.63,0.06,3.27,0.08,4.91,0.09c45.83,0.4,91.68-1.16,137.48,1.89
	c22.71,1.52,45.39,3.49,67.57,8.77c89.71,21.35,151.83,74.79,185.51,160.75c11.15,28.45,15.17,58.49,17.89,88.72
	c2.03,22.53,2.39,45.12,2.4,67.71c0.04,119.86-0.04,239.71-0.09,359.57c-0.01,30.65-1.62,61.19-6.16,91.53
	c-3.87,25.87-10.68,50.86-21.83,74.62c-21.19,45.17-52.29,81.57-94.68,108.22c-37.94,23.86-79.58,36.1-123.87,40.37
	c-29.84,2.88-59.74,4.36-89.72,4.37c-101.35,0.02-202.71-0.03-304.06,0.03c-30.45,0.02-60.89-0.11-91.3-2.17
	c-21.9-1.48-43.71-3.6-65.2-8.12c-49.29-10.37-92.43-32.71-128.26-68.12c-40.67-40.2-64.54-89.22-73.45-145.61
	c-3.33-21.04-5.15-42.22-6.1-63.5C641.27,1109.15,640.33,1103.67,639.71,1098.17z M1548.37,899.06c-0.16,0-0.32,0-0.48,0
	c0-68.78,0.08-137.55-0.05-206.33c-0.04-20.32-1.23-40.62-5.12-60.6c-10.51-54.1-39.76-94.2-89.52-118.84
	c-22.57-11.18-46.77-15.76-71.55-17.34c-20.08-1.28-40.23-1.95-60.35-1.98c-118.57-0.18-237.13-0.13-355.7-0.04
	c-16.2,0.01-32.42,0.43-48.61,1.16c-15.53,0.69-31.08,1.98-46.23,5.65c-64.82,15.67-106.41,55.63-123.99,120.02
	c-5.94,21.76-7.17,44.27-7.51,66.7c-0.53,35.86-0.46,71.72-0.45,107.58c0.02,103.01,0.04,206.01,0.29,309.02
	c0.05,21.62,1.21,43.27,5.82,64.46c13.27,61.04,49.19,102.53,108.24,123.48c20.09,7.13,41.16,9.17,62.26,10.32
	c16.34,0.89,32.73,1.19,49.09,1.2c119.39,0.1,238.77,0.07,358.16,0.03c10.97,0,21.94-0.25,32.9-0.56
	c20.47-0.58,40.93-1.68,60.95-6.29c51.09-11.77,88.87-40.67,112.31-87.89c11.58-23.33,16.14-48.38,17.65-74
	c1.24-21.07,1.73-42.2,1.82-63.31C1548.52,1014.02,1548.37,956.54,1548.37,899.06z"/>
<path d="M1193.03,882.65c1.96-0.49,3.67-0.9,5.36-1.35c67.24-18.16,134.46-36.34,201.71-54.48c26.71-7.2,53.69,7.97,60.86,34.12
	c7.26,26.45-7.63,53.18-34.37,60.68c-32.11,9.01-64.37,17.5-96.57,26.22c-54.29,14.7-108.58,29.4-162.87,44.12
	c-2.2,0.6-4.38,1.34-6.52,2.12c-33.32,12.12-67.5-13.11-66.43-48.52c0.65-21.76,0.16-43.55,0.16-65.33c0-0.76-0.25-1.53-0.45-2.64
	c-1.81,0.42-3.38,0.74-4.91,1.16c-67.4,18.21-134.8,36.43-202.2,54.63c-20.72,5.59-42.14-2.27-53.99-19.71
	c-18.8-27.67-5.34-65.83,26.87-74.91c36.82-10.38,73.81-20.15,110.74-30.14c53.02-14.35,106.08-28.58,159.07-43.04
	c28.79-7.86,55.5,9.47,61.78,35.31c1.03,4.25,1.48,8.73,1.51,13.11c0.13,21.61,0.02,43.23,0.02,64.84
	C1192.78,879.93,1192.92,881.06,1193.03,882.65z"/>
</svg>
